<svg id="Ebene_1" data-name="Ebene 1" xmlns="http://www.w3.org/2000/svg" viewBox="0 0 1968.51 269.32">
    <defs>
        <style>.cls-1,.cls-3{fill:#ffffff;}.cls-2{fill:#188db3;}.cls-3{fill-rule:evenodd;}</style>
    </defs>
    <g id="Gruppe_8" data-name="Gruppe 8">
        <g id="Gruppe_6" data-name="Gruppe 6">
            <g id="Pfad_5" data-name="Pfad 5">
                <path class="cls-1"
                      d="M782.92,89.56c1.5-5.22,5.59-7.85,12.67-7.85a12.17,12.17,0,0,1,8.95,3.73,11.21,11.21,0,0,1,3.73,8.19,18.56,18.56,0,0,1-.72,6.71L765.43,224.4a18,18,0,0,1-6.34,8.57,17.68,17.68,0,0,1-11.17,3.73A17.38,17.38,0,0,1,737.11,233a22.8,22.8,0,0,1-6.71-8.92l-31.67-98.73-31.66,98.73a21.85,21.85,0,0,1-6.7,8.94,18.94,18.94,0,0,1-10.81,3.73,16.64,16.64,0,0,1-10.8-3.73,17.9,17.9,0,0,1-6.33-8.56L590,100.36a37.61,37.61,0,0,1-.36-6.71,11.11,11.11,0,0,1,3.73-8.19,12.14,12.14,0,0,1,8.94-3.73c7.07,0,11.18,2.61,12.66,7.85l34.64,115.1L684.21,92.59a19.15,19.15,0,0,1,5.59-7.82,15.15,15.15,0,0,1,8.94-3,13.34,13.34,0,0,1,9.28,3,15.1,15.1,0,0,1,5.59,7.82l34.27,112.09Z"
                      transform="translate(-36.83 -21.88)"/>
            </g>
        </g>
        <g id="Gruppe_7" data-name="Gruppe 7">
            <g id="Pfad_6" data-name="Pfad 6">
                <path class="cls-1"
                      d="M842.46,168.74a45.9,45.9,0,0,0,48.71,42.91c.58,0,1.16-.08,1.74-.14a92.81,92.81,0,0,0,38-6.95,18.11,18.11,0,0,1,8.77-2.55,8.71,8.71,0,0,1,7.33,2.91,9.63,9.63,0,0,1,3.28,7,11.26,11.26,0,0,1-6.21,11.34c-4,2.2-8,4-11.34,5.48a54.22,54.22,0,0,1-10.6,4.39,110.49,110.49,0,0,1-30.71,3.66c-24.11,0-42.77-7-55.94-20.12-13.15-13.51-19.74-32.54-19.74-57.4a83.61,83.61,0,0,1,16.83-53.75A71.28,71.28,0,0,1,937.54,104a74.47,74.47,0,0,1,17.92,51.56,15.36,15.36,0,0,1-3.66,9.5,12.93,12.93,0,0,1-9.5,3.67Zm43.14-64.37a39.37,39.37,0,0,0-37.67,23,52.58,52.58,0,0,0-5.47,19.75h86.62a44.14,44.14,0,0,0-15.35-32.91A42.09,42.09,0,0,0,885.6,104.37Z"
                      transform="translate(-36.83 -21.88)"/>
            </g>
        </g>
    </g>
    <g id="Gruppe_12" data-name="Gruppe 12">
        <path class="cls-2"
              d="M1807.11,130.27a71.46,71.46,0,0,0-14.54-24.72,74.63,74.63,0,0,0-59-24.92h-43.15a11.68,11.68,0,0,0-8.74,3.82,12.38,12.38,0,0,0-3.63,8.81v97.38h25V104.33h28.14a56.32,56.32,0,0,1,41,14.92,57.34,57.34,0,0,1,0,77.65,56.37,56.37,0,0,1-41,14.93v0l-28.14-.35H1600.51c-.55.06-1.12.11-1.69.14a45.92,45.92,0,0,1-48.76-42.91h99.83a12.92,12.92,0,0,0,9.51-3.66,15.56,15.56,0,0,0,3.66-9.5A74.49,74.49,0,0,0,1645.14,104c-1.36-1.47-2.79-2.84-4.27-4.17a71.31,71.31,0,0,0-100.68,5.63,83.59,83.59,0,0,0-16.82,53.75c0,24.85,6.58,43.87,19.74,57.39,13.16,13.18,31.82,20.13,56,20.13l100.12-1.09v-.07h34.36a74.71,74.71,0,0,0,59-25,71.27,71.27,0,0,0,14.54-24.72A84.46,84.46,0,0,0,1807.11,130.27Zm-251.58-2.87a39.35,39.35,0,0,1,37.68-23,42.2,42.2,0,0,1,28.16,9.85,44.15,44.15,0,0,1,15.34,32.92h-86.65A52.72,52.72,0,0,1,1555.53,127.4Z"
              transform="translate(-36.83 -21.88)"/>
    </g>
    <g id="Gruppe_16" data-name="Gruppe 16">
        <g id="Gruppe_14" data-name="Gruppe 14">
            <g id="Pfad_12" data-name="Pfad 12">
                <path class="cls-2"
                      d="M1830.26,95.51a13.14,13.14,0,0,1,4-10,13.61,13.61,0,0,1,9.83-3.82,12.4,12.4,0,0,1,9.45,3.82,13.92,13.92,0,0,1,3.63,10V223.2a13.62,13.62,0,0,1-3.63,9.46,12.21,12.21,0,0,1-9.45,4,13.34,13.34,0,0,1-9.83-4,12.88,12.88,0,0,1-4-9.46Z"
                      transform="translate(-36.83 -21.88)"/>
            </g>
        </g>
        <g id="Gruppe_15" data-name="Gruppe 15">
            <g id="Pfad_13" data-name="Pfad 13">
                <path class="cls-2"
                      d="M1859.41,38.11a14.81,14.81,0,0,1-4.28,10.81,14.46,14.46,0,0,1-10.71,4.32h-1.79a13.88,13.88,0,0,1-10.51-4.32,15.1,15.1,0,0,1-4.1-10.81V37a14.75,14.75,0,0,1,4.28-10.81,14,14,0,0,1,10.33-4.32h1.79a14.42,14.42,0,0,1,10.71,4.32A14.79,14.79,0,0,1,1859.41,37Z"
                      transform="translate(-36.83 -21.88)"/>
            </g>
        </g>
    </g>
    <g id="Gruppe_17" data-name="Gruppe 17">
        <path class="cls-2"
              d="M1990.34,100a59.28,59.28,0,0,0-46.08-18.29,124.53,124.53,0,0,0-51.18,10.24,10.62,10.62,0,0,0-7.69,9.87,15.14,15.14,0,0,0,3.28,9.87,10.68,10.68,0,0,0,6.22,2.91,21.57,21.57,0,0,0,5.48-.71,140.84,140.84,0,0,1,38.76-6.94,44.77,44.77,0,0,1,29.61,8.4,35.43,35.43,0,0,1,9.5,27.8v2.56h-35.46c-21.94-.36-38.75,4-50.82,13.15a40.87,40.87,0,0,0-16.42,34.37A41.52,41.52,0,0,0,1889.42,225a51.12,51.12,0,0,0,34,11.7,75.27,75.27,0,0,0,33.63-6.94,90.39,90.39,0,0,0,21.21-15.36v6.91h0v13.34h27.1V139.1A57.7,57.7,0,0,0,1990.34,100Zm-12.11,91.77a68.79,68.79,0,0,1-19.37,14.63,52.33,52.33,0,0,1-25.6,6.58q-30.71.53-30.7-23a17.35,17.35,0,0,1,11.72-17.55,77.83,77.83,0,0,1,32.54-5.47h31.41Z"
              transform="translate(-36.83 -21.88)"/>
    </g>
    <polygon class="cls-2" points="1664.65 58.68 1641.14 58.68 1641.14 81.04 1664.65 58.68"/>
    <path class="cls-1"
          d="M1260.83,148.47v59.94a17.39,17.39,0,0,1-2.57,9.42,15.21,15.21,0,0,1-6.83,6,108.18,108.18,0,0,1-48.74,12,72.77,72.77,0,0,1-54.85-21.67,77.76,77.76,0,0,1-21.12-53.26c0-.76,0-1.51,0-2.27s0-1.67,0-2.51a77.63,77.63,0,0,1,22-54.11A71.7,71.7,0,0,1,1202,80.79a93.14,93.14,0,0,1,30.88,4.46,102.86,102.86,0,0,1,22.4,10.94,9.66,9.66,0,0,1,5.33,9,12.91,12.91,0,0,1-2.79,8.57,9.46,9.46,0,0,1-7.49,3.47,14.81,14.81,0,0,1-6.53-1.29l-.16-.08A77.89,77.89,0,0,0,1204,104.47a51.18,51.18,0,0,0-7.22.09A50,50,0,0,0,1151,154.31c0,1.4.06,2.82.18,4.24a54.33,54.33,0,0,0,14,38.58A52.44,52.44,0,0,0,1205,212.59a73.62,73.62,0,0,0,34-8.12V171.06h-32a10.43,10.43,0,0,1-7.9-3.38,11.09,11.09,0,0,1-3.15-7.92,10.91,10.91,0,0,1,3.32-8,10.62,10.62,0,0,1,7.74-3.31h53.79Z"
          transform="translate(-36.83 -21.88)"/>
    <path class="cls-1"
          d="M567.13,100a59.28,59.28,0,0,0-46.08-18.29,124.53,124.53,0,0,0-51.18,10.24,10.65,10.65,0,0,0-7.69,9.87,15.13,15.13,0,0,0,3.3,9.86,10.69,10.69,0,0,0,6.22,2.92,22,22,0,0,0,5.48-.72,141.21,141.21,0,0,1,38.76-6.94,44.85,44.85,0,0,1,29.62,8.41,35.46,35.46,0,0,1,9.5,27.8v2.56H519.55c-21.93-.36-38.74,4-50.81,13.15a40.87,40.87,0,0,0-16.42,34.37A41.54,41.54,0,0,0,466.19,225a51.12,51.12,0,0,0,34,11.7,75.33,75.33,0,0,0,33.63-6.94A90.68,90.68,0,0,0,555,214.42v20.33h27.08V139.1A57.61,57.61,0,0,0,567.13,100Zm-31.46,106.4A52.29,52.29,0,0,1,510.08,213q-30.7.53-30.7-23a17.35,17.35,0,0,1,11.71-17.55,77.9,77.9,0,0,1,32.55-5.47h31.41v24.85A69.07,69.07,0,0,1,535.67,206.38Z"
          transform="translate(-36.83 -21.88)"/>
    <path class="cls-1"
          d="M1108.42,138.57V222.7a12.61,12.61,0,0,1-4.07,9.23,13.22,13.22,0,0,1-9.23,4.06,13.41,13.41,0,0,1-9.58-4.06,12.51,12.51,0,0,1-4.06-9.23V141.52a40.41,40.41,0,0,0-7.39-26.22,30.18,30.18,0,0,0-24.76-9.59q-26,0-48.71,28.78V222.7a12.6,12.6,0,0,1-4.06,9.23,13.22,13.22,0,0,1-9.23,4.06,13.48,13.48,0,0,1-9.61-4.06,12.6,12.6,0,0,1-4.06-9.23V92.38l27-10V108.3a127.85,127.85,0,0,1,20.3-17.72,65.55,65.55,0,0,1,32.13-9.6,61.26,61.26,0,0,1,25.1,4.43,50.61,50.61,0,0,1,16.61,12.93A61.61,61.61,0,0,1,1108.42,138.57Z"
          transform="translate(-36.83 -21.88)"/>
    <g id="Gruppe_1" data-name="Gruppe 1">
        <g id="Pfad_1" data-name="Pfad 1">
            <path class="cls-3"
                  d="M366.38,139.41,288.74,87.64a14.37,14.37,0,1,0-16.29,23.67l.37.24,76.75,51.17L272.82,213.9a14.35,14.35,0,1,0,15.71,24l.21-.13L366.37,186a28.32,28.32,0,0,0,0-46.64Z"
                  transform="translate(-36.83 -21.88)"/>
        </g>
    </g>
    <g id="Gruppe_3" data-name="Gruppe 3">
        <g id="Pfad_3" data-name="Pfad 3">
            <path class="cls-3"
                  d="M49.07,139.41l77.64-51.77a14.37,14.37,0,0,1,15.93,23.91h0L65.88,162.74l76.76,51.18a14.36,14.36,0,0,1-15.93,23.9h0L49.07,186.06a28.36,28.36,0,0,1,0-46.65Z"
                  transform="translate(-36.83 -21.88)"/>
        </g>
    </g>
    <polygon class="cls-2" points="199.39 11.34 108.74 269.32 138.49 269.32 229.12 11.34 199.39 11.34"/>
    <path class="cls-2"
          d="M1505,137.44V222.7a13.74,13.74,0,0,1-3.67,9.23,13.38,13.38,0,0,1-18.92.28,3.7,3.7,0,0,1-.28-.28,12.25,12.25,0,0,1-3.69-9.23V143a45.57,45.57,0,0,0-7-28,27.47,27.47,0,0,0-23.26-9.22c-17,0-31.38,9.58-42.84,28.78V222.7a12.23,12.23,0,0,1-3.67,9.23,12.84,12.84,0,0,1-9.61,4.06,13.89,13.89,0,0,1-13.29-13.29V143a48.38,48.38,0,0,0-6.64-28,27.42,27.42,0,0,0-23.26-9.22c-17.35,0-31.74,9.58-42.84,28.78V222.7a12.58,12.58,0,0,1-4.06,9.23,13.22,13.22,0,0,1-9.23,4.06,13.4,13.4,0,0,1-9.61-4.06,12.58,12.58,0,0,1-4.06-9.23V92.25l26.94-10V95.43c0,.23,0,.45,0,.68l0,12.18A57.65,57.65,0,0,1,1355.9,81a50.72,50.72,0,0,1,29.51,9.23,49,49,0,0,1,16.26,21,61.15,61.15,0,0,1,15.87-18.09,63.13,63.13,0,0,1,38-12.18,44.83,44.83,0,0,1,37.64,18.45A61.43,61.43,0,0,1,1505,137.44Z"
          transform="translate(-36.83 -21.88)"/>
</svg>