<?xml version="1.0" encoding="utf-8"?>
<!-- Generator: Adobe Illustrator 25.2.3, SVG Export Plug-In . SVG Version: 6.00 Build 0)  -->
<svg version="1.2" baseProfile="tiny" id="Ebene_1" xmlns="http://www.w3.org/2000/svg" xmlns:xlink="http://www.w3.org/1999/xlink"
     x="0px" y="0px" viewBox="0 0 2127.3 314.7" overflow="visible" xml:space="preserve">
<g id="Gruppe_8_4_" transform="translate(306.194 -70.626)">
	<g id="Gruppe_6_4_" transform="translate(19.227 0.008)">
		<g id="Pfad_5_4_">
			<g>
				<path fill="#ffffff" d="M457.5,160.2c1.5-5.2,5.6-7.9,12.7-7.9c3.4-0.1,6.6,1.3,8.9,3.7c2.3,2.1,3.7,5.1,3.7,8.2
					c0.2,2.3-0.1,4.5-0.7,6.7L440,295c-1.2,3.4-3.4,6.4-6.3,8.6c-3.2,2.5-7.1,3.8-11.2,3.7c-3.9,0-7.7-1.3-10.8-3.7
					c-2.9-2.4-5.2-5.4-6.7-8.9l-31.7-98.7l-31.7,98.7c-1.4,3.5-3.7,6.6-6.7,8.9c-3.1,2.3-6.9,3.6-10.8,3.7
					c-3.9,0.1-7.8-1.2-10.8-3.7c-2.9-2.1-5.1-5.1-6.3-8.6L264.5,171c-0.3-2.2-0.4-4.5-0.4-6.7c0-3.1,1.4-6.1,3.7-8.2
					c2.3-2.4,5.6-3.8,8.9-3.7c7.1,0,11.2,2.6,12.7,7.9l34.6,115.1l34.6-112.1c1.2-3,3.1-5.7,5.6-7.8c2.6-1.9,5.7-3,8.9-3
					c3.4-0.2,6.7,0.9,9.3,3c2.7,1.9,4.6,4.7,5.6,7.8l34.3,112.1L457.5,160.2z"/>
			</g>
		</g>
	</g>
    <g id="Gruppe_7_4_" transform="translate(50.905 0.004)">
		<g id="Pfad_6_4_">
			<g>
				<path fill="#ffffff" d="M485.4,239.4c1.6,25.3,23.4,44.5,48.7,42.9c0.6,0,1.2-0.1,1.7-0.1c13,0.4,26-2,38-7
					c2.7-1.6,5.7-2.5,8.8-2.5c2.8-0.3,5.5,0.8,7.3,2.9c2,1.8,3.2,4.3,3.3,7c0.5,4.7-2,9.2-6.2,11.3c-4,2.2-7.6,4-10.9,5.5
					c-3.4,1.8-7.3,3.3-11,4.4c-10,2.7-20.3,3.9-30.7,3.7c-24.1,0-42.8-7-55.9-20.1c-13.2-13.5-19.7-32.5-19.7-57.4
					c-0.8-19.3,5.2-38.3,16.8-53.7c12.9-15.9,32.6-24.8,53-23.8c19.8-1,39,7.2,51.9,22.3c12.3,14.3,18.7,32.7,17.9,51.6
					c-0.1,3.5-1.4,6.8-3.7,9.5c-2.5,2.5-6,3.8-9.5,3.7L485.4,239.4z M528.5,175c-16.1-0.8-31,8.4-37.7,23c-3.1,6.2-5,12.9-5.5,19.7
					H572c-0.2-12.7-5.7-24.6-15.3-32.9C548.8,178.2,538.8,174.7,528.5,175z"/>
			</g>
		</g>
	</g>
</g>
    <g id="Gruppe_12_4_" transform="translate(456.207 -70.623)">
	<g>
		<g>
			<path fill="#3b82f6" d="M1367.9,202.9c-3.1-9.1-8.1-17.5-14.5-24.7c-14.9-16.8-36.6-24.9-59-23.9h-32.1l0.1-0.1h-23.5v22.4
				l0.1-0.1v85.8h25V178h28.1c15.1-0.7,29.8,3.6,41,13.9c20.2,21.9,20.2,54.7,0,76.6c-11.1,10.3-25.9,14.6-41,13.9v0l-28.1-0.3
				h-102.6c-0.5,0.1-1.1,0.1-1.7,0.1c-25.3,1.6-47.1-17.6-48.8-42.9h99.8c3.5,0.1,7-1.2,9.5-3.7c2.3-2.7,3.5-6,3.7-9.5
				c0.8-18.8-5.6-37.3-17.9-51.6c-1.4-1.5-2.8-2.8-4.3-4.2c-29.4-26.2-74.4-23.7-100.7,5.6c-11.6,15.4-17.6,34.4-16.8,53.8
				c0,24.8,6.6,43.9,19.8,57.4c13.2,13.2,31.8,20.1,55.9,20.1l100.1-1.1v-0.1h34.4c22.4,1,44.1-7.2,59-24
				c6.5-7.2,11.4-15.6,14.5-24.7C1374.2,239.5,1374.2,220.9,1367.9,202.9z M1116.3,198c6.7-14.6,21.6-23.8,37.7-23
				c10.3-0.3,20.3,3.2,28.2,9.9c9.6,8.3,15.2,20.2,15.3,32.9h-86.7C1111.4,210.9,1113.2,204.2,1116.3,198z"/>
		</g>
	</g>
</g>
    <g id="Gruppe_16_4_" transform="translate(499.361 -79)">
	<g id="Gruppe_14_4_" transform="translate(0.312 8.377)">
		<g id="Pfad_12_4_">
			<g>
				<path fill="#3b82f6" d="M1347.6,166.1c-0.1-3.8,1.3-7.4,4-10c2.6-2.5,6.2-3.9,9.8-3.8c3.6-0.1,7,1.3,9.5,3.8
					c2.5,2.7,3.8,6.3,3.6,10v127.7c0.1,3.5-1.2,6.9-3.6,9.5c-2.4,2.7-5.9,4.1-9.5,4c-3.7,0.1-7.2-1.4-9.8-4c-2.6-2.5-4-5.9-4-9.5
					V166.1z"/>
			</g>
		</g>
	</g>
        <g id="Gruppe_15_4_">
		<g id="Pfad_13_4_">
			<g>
				<path fill="#3b82f6" d="M1377,117.1c0.1,4-1.4,7.9-4.3,10.8c-2.8,2.9-6.7,4.4-10.7,4.3h-1.8c-4,0.1-7.8-1.4-10.5-4.3
					c-2.7-2.9-4.2-6.8-4.1-10.8V116c-0.1-4,1.4-7.9,4.3-10.8c2.7-2.8,6.4-4.4,10.3-4.3h1.8c4-0.1,7.9,1.5,10.7,4.3
					c2.8,2.9,4.4,6.8,4.3,10.8V117.1z"/>
			</g>
		</g>
	</g>
</g>
    <g id="Gruppe_17_4_" transform="translate(506.015 -70.626)">
	<g>
		<g>
			<path fill="#3b82f6" d="M1501.3,170.6c-11.9-12.5-28.8-19.2-46.1-18.3c-17.6-0.2-35,3.2-51.2,10.2c-4.4,1.3-7.5,5.3-7.7,9.9
				c-0.1,3.6,1.1,7.1,3.3,9.9c1.7,1.6,3.9,2.7,6.2,2.9c1.8,0,3.7-0.2,5.5-0.7c12.5-4.1,25.6-6.5,38.8-6.9c10.5-0.8,21,2.2,29.6,8.4
				c7,7.5,10.5,17.6,9.5,27.8v2.6h-35.5c-21.9-0.4-38.8,4-50.8,13.2c-10.8,8-17,20.9-16.4,34.4c-0.2,12.1,4.8,23.7,13.9,31.8
				c9.5,7.9,21.6,12,34,11.7c11.6,0.3,23.1-2.1,33.6-6.9c7.8-4.1,14.9-9.2,21.2-15.4v6.9h0v13.3h27.1v-95.6
				C1516.4,195.3,1511,181.3,1501.3,170.6z M1489.2,262.4c-5.5,6-12.1,10.9-19.4,14.6c-7.8,4.3-16.6,6.6-25.6,6.6
				c-20.5,0.3-30.7-7.3-30.7-23c-0.5-7.8,4.3-15,11.7-17.5c10.3-4.1,21.4-6,32.5-5.5h31.4V262.4z"/>
		</g>
	</g>
</g>
    <g>
	<g>
		<path fill="#ffffff" d="M567.1,100c-12-12.5-28.8-19.2-46.1-18.3c-17.6-0.2-35,3.2-51.2,10.2c-4.4,1.3-7.5,5.3-7.7,9.9
			c-0.1,3.6,1.1,7.1,3.3,9.9c1.7,1.6,3.9,2.7,6.2,2.9c1.8,0,3.7-0.2,5.5-0.7c12.5-4.1,25.6-6.5,38.8-6.9c10.6-0.8,21,2.2,29.6,8.4
			c7,7.5,10.5,17.6,9.5,27.8v2.6h-35.5c-21.9-0.4-38.7,4-50.8,13.2c-10.8,8-16.9,20.9-16.4,34.4c-0.2,12.1,4.8,23.7,13.9,31.8
			c9.5,7.9,21.6,12,34,11.7c11.6,0.3,23.1-2.1,33.6-6.9c7.8-4.1,14.9-9.2,21.2-15.4v20.3h27.1v-95.7
			C582.2,124.6,576.9,110.7,567.1,100z M535.7,206.4c-7.8,4.3-16.6,6.6-25.6,6.6c-20.5,0.3-30.7-7.3-30.7-23
			c-0.5-7.8,4.3-15,11.7-17.5c10.3-4.1,21.4-6,32.5-5.5h31.4v24.8C549.5,197.7,543,202.7,535.7,206.4z"/>
	</g>
</g>
    <g>
	<g>
		<path fill="#ffffff" d="M1108.4,138.6v84.1c0,3.5-1.5,6.9-4.1,9.2c-2.4,2.5-5.7,4-9.2,4.1c-3.6,0-7.1-1.5-9.6-4.1
			c-2.6-2.4-4.1-5.7-4.1-9.2v-81.2c0.7-9.3-2-18.6-7.4-26.2c-6.3-6.8-15.5-10.4-24.8-9.6c-17.3,0-33.6,9.6-48.7,28.8v88.2
			c0,3.5-1.5,6.9-4.1,9.2c-2.4,2.5-5.7,4-9.2,4.1c-3.6,0-7.1-1.5-9.6-4.1c-2.6-2.4-4-5.7-4.1-9.2V92.4l27-10v25.9
			c6.1-6.6,12.9-12.5,20.3-17.7c9.7-5.9,20.8-9.2,32.1-9.6c8.6-0.3,17.1,1.2,25.1,4.4c6.4,3.1,12,7.5,16.6,12.9
			C1103.9,109.7,1108.8,124,1108.4,138.6z"/>
	</g>
</g>
    <g id="Gruppe_1_4_" transform="translate(280.157 -70.624)">
	<g id="Pfad_1_4_">
		<g>
			<path fill-rule="evenodd" fill="#ffffff" d="M86.2,210L8.6,158.3c-6.5-4.5-15.5-2.8-20,3.7c-4.5,6.5-2.8,15.5,3.7,20
				c0.1,0.1,0.2,0.2,0.4,0.2l76.8,51.2l-76.8,51.2c-6.6,4.3-8.5,13.2-4.2,19.9c4.3,6.6,13.2,8.5,19.9,4.2c0.1,0,0.1-0.1,0.2-0.1
				l77.6-51.8c12.9-8.9,16.1-26.5,7.2-39.4C91.5,214.4,89,212,86.2,210L86.2,210z"/>
		</g>
	</g>
</g>
    <g id="Gruppe_3_4_" transform="translate(248 -70.624)">
	<g id="Pfad_3_4_">
		<g>
			<path fill-rule="evenodd" fill="#ffffff" d="M-198.9,210l77.6-51.8c6.6-4.4,15.5-2.6,19.9,4c4.4,6.6,2.6,15.5-4,19.9l0,0
				l-76.8,51.2l76.8,51.2c6.6,4.4,8.4,13.3,4,19.9c-4.4,6.6-13.3,8.4-19.9,4l0,0l-77.6-51.8c-12.9-8.9-16.1-26.5-7.2-39.4
				C-204.2,214.4-201.8,212-198.9,210z"/>
		</g>
	</g>
</g>
    <g>
	<polygon fill="#3b82f6" points="236.2,33.2 145.6,291.2 175.3,291.2 265.9,33.2 	"/>
</g>
    <g>
	<g>
		<path fill="#3b82f6" d="M1522,137.4v84.3c0,3.4-1.3,6.7-3.7,9.2c-5.2,5.3-13.6,5.4-18.9,0.3c-0.1-0.1-0.2-0.2-0.3-0.3
			c-2.5-2.4-3.8-5.8-3.7-9.2v-78.8c0.8-9.9-1.7-19.7-7-28.1c-5.8-6.6-14.5-10.1-23.3-9.2c-17,0-31.4,9.6-42.8,28.8v87.2
			c0.1,3.5-1.2,6.8-3.7,9.2c-2.5,2.6-6,4.1-9.6,4.1c-7.2-0.3-13-6.1-13.3-13.3v-78.8c0.7-9.8-1.6-19.6-6.6-28.1
			c-5.8-6.6-14.5-10.1-23.3-9.2c-17.4,0-31.7,9.6-42.8,28.8v87.2c0,3.5-1.5,6.9-4.1,9.2c-2.4,2.5-5.7,4-9.2,4.1
			c-3.6,0-7.1-1.5-9.6-4.1c-2.6-2.4-4.1-5.7-4.1-9.2V92.2l26.9-10v13.2c0,0.2,0,0.4,0,0.7l0.1,12.2c10.7-17.2,29.6-27.6,49.8-27.3
			c10.6-0.1,20.9,3.2,29.5,9.2c7.3,5.4,12.9,12.7,16.3,21c4-7,9.4-13.2,15.9-18.1c11-8.1,24.4-12.3,38-12.2
			c14.8-0.4,28.9,6.4,37.6,18.4C1518.2,110.4,1522.4,123.8,1522,137.4z"/>
	</g>
</g>
    <g>
	<g>
		<path fill="#ffffff" d="M1268.6,163.2v47c0,3.6-0.9,6.9-2.8,9.7c-1.9,2.8-4.4,4.8-7.4,6c-17,7.9-34.5,11.9-52,11.9
			c-24.1,0-43.8-7.3-58.6-21.7c-14.8-14.4-22.5-33.1-22.6-55.7c0-22.8,7.9-41.9,23.5-56.8c14.8-14,34-21.1,56.9-21.1
			c12.9,0,24,1.5,33,4.5c8.8,2.9,16.9,6.6,23.9,10.9c4.8,2.6,5.9,6.4,5.9,9.2c0,3.6-1,6.6-3.1,8.9c-2.1,2.3-4.9,3.5-8.1,3.5
			c-2.8,0-5.1-0.4-7-1.3l-0.2-0.1c-13.8-7.5-28-11.3-42.3-11.3c-16.4,0-30,4.7-40.4,14c-10.7,9.7-16,23-15.8,39.6
			c0,15.6,5,28.4,14.9,38.3c10.4,10.2,24.7,15.4,42.4,15.4c12.8,0,24.9-2.7,36.1-8v-32.7H1211c-3.3,0-6.2-1.1-8.5-3.4
			c-2.3-2.3-3.5-5-3.5-8.2c0-3.2,1.2-6,3.7-8.3c2.4-2.2,5.2-3.4,8.3-3.4h44c0.2,0,0.5,0,0.7,0h12.9v12
			C1268.6,162.4,1268.6,162.8,1268.6,163.2z"/>
	</g>
</g>
</svg>